<?xml version="1.0" encoding="utf-8"?>
<svg xmlns="http://www.w3.org/2000/svg" viewBox="123.0873 773.0351 25.2196 31.5245" width="25.2196px" height="31.5245px">
  <g fill="#2e3436" id="g32966" transform="matrix(2.1016316413879395, 0, 0, 2.1016316413879395, 118.88404846191405, 770.9334716796874)" style="fill:#ffffff">
    <path d="m 8,2 v 5 h 5 z m 0,0" id="path32962" style="fill:#ffffff"/>
    <path d="m 2,13 c 0,1.660156 1.339844,3 3,3 h 6 c 1.660156,0 3,-1.339844 3,-3 V 7 C 14,6.09375 13.640625,5.226562 13,4.585938 L 10.414062,2 C 9.773438,1.359375 8.90625,1 8,1 H 5 C 3.339844,1 2,2.339844 2,4 Z M 5,3 H 8 C 8.375,3 8.734375,3.148438 9,3.414062 L 11.585938,6 C 11.851562,6.265625 12,6.625 12,7 v 6 c 0,0.546875 -0.453125,1 -1,1 H 5 C 4.453125,14 4,13.546875 4,13 V 4 C 4,3.453125 4.453125,3 5,3 Z m 0,0" id="path32964" style="fill:#ffffff"/>
  </g>
</svg>