<?xml version="1.0" encoding="utf-8"?>
<svg xmlns="http://www.w3.org/2000/svg" viewBox="123.0873 617.274 25.2196 23.6435" width="25.2196px" height="23.6435px">
  <path d="m 130.96843,617.27401 c -2.17346,0 -3.94056,1.76709 -3.94056,3.94056 0,2.17962 1.7671,3.94056 3.94056,3.94056 2.17963,0 3.94056,-1.76094 3.94056,-3.94056 0,-2.17347 -1.76093,-3.94056 -3.94056,-3.94056 z m 9.45734,4.72867 c -2.17345,0 -3.94056,1.76709 -3.94056,3.94056 0,2.17962 1.76711,3.94056 3.94056,3.94056 2.17963,0 3.94056,-1.76094 3.94056,-3.94056 0,-2.17347 -1.76093,-3.94056 -3.94056,-3.94056 z m -12.60979,4.72867 c -2.61677,0 -4.72867,2.11189 -4.72867,4.72868 v 3.15244 c 0,0.87432 0.70192,1.57623 1.57622,1.57623 h 6.42805 c 0,-3.22018 2.49363,-5.88622 5.63992,-6.15713 -0.92972,-0.84353 -1.54544,-1.98259 -1.74862,-3.22017 -0.27707,-0.0492 -0.56646,-0.0801 -0.862,-0.0801 z m 9.45734,4.72868 c -2.61676,0 -4.72867,2.11188 -4.72867,4.72867 v 3.15244 c 0,0.87432 0.70193,1.57623 1.57623,1.57623 h 12.60979 c 0.87431,0 1.57622,-0.70191 1.57622,-1.57623 v -3.15244 c 0,-2.61679 -2.10572,-4.72867 -4.72867,-4.72867 z m 0,0" fill="#222222" id="path30720" style="stroke-width:1.57622;fill:#ffffff" transform="matrix(0.9999999999999999, 0, 0, 0.9999999999999999, 0, -2.842170943040401e-14)"/>
</svg>