<?xml version="1.0" encoding="utf-8"?>
<svg xmlns="http://www.w3.org/2000/svg" viewBox="123.0873 857.4863 25.2196 25.9153" width="25.2196px" height="25.9153px">
  <path d="m 135.6971,857.48629 c -0.4049,0 -0.81704,0.0216 -1.2147,0.0577 l -0.75196,3.87549 c -0.61458,0.13012 -1.2147,0.32536 -1.79314,0.57843 l -2.8343,-2.71141 c -0.71582,0.41938 -1.34485,0.94718 -1.96667,1.49671 l 1.67745,3.52842 c -0.41214,0.46275 -0.78089,0.96887 -1.09902,1.50392 l -3.87549,-0.51337 c -0.32536,0.7592 -0.57842,1.55454 -0.75196,2.36435 l 3.41274,1.85097 c -0.0361,0.31091 -0.0507,0.61459 -0.0577,0.92549 0,0.31813 0.0289,0.61459 0.0577,0.92549 l -3.41274,1.85098 c 0.18066,0.82426 0.41937,1.61236 0.75196,2.37157 l 3.87549,-0.52059 c 0.31813,0.53504 0.68688,1.04118 1.09902,1.50392 l -1.67745,3.52843 c 0.62182,0.55673 1.25085,1.07732 1.96667,1.50391 l 2.8343,-2.71862 c 0.56397,0.25307 1.17132,0.44105 1.79314,0.57842 l 0.75196,3.87549 c 0.8098,0.0796 1.6196,0.0796 2.4294,0 l 0.75196,-3.87549 c 0.62182,-0.13734 1.22917,-0.32535 1.79314,-0.57842 l 2.8343,2.71862 c 0.71582,-0.42659 1.34485,-0.94718 1.96667,-1.50391 l -1.67745,-3.52843 c 0.41212,-0.46274 0.78087,-0.96888 1.09902,-1.50392 l 3.87549,0.52059 c 0.32536,-0.76642 0.57842,-1.55455 0.75196,-2.37157 l -3.41274,-1.85098 c 0.0289,-0.3109 0.0577,-0.60736 0.0577,-0.92549 0,-0.31814 -0.0289,-0.61458 -0.0577,-0.92549 l 3.41274,-1.85097 c -0.17344,-0.80981 -0.4266,-1.60515 -0.75196,-2.37157 l -3.87549,0.52059 c -0.31815,-0.53505 -0.67966,-1.04117 -1.09902,-1.50392 l 1.67745,-3.52842 c -0.62182,-0.54953 -1.25085,-1.07733 -1.96667,-1.50392 l -2.8343,2.71862 c -0.57844,-0.25307 -1.17856,-0.4483 -1.79314,-0.57843 l -0.75196,-3.87545 c -0.40489,-0.0361 -0.8098,-0.0577 -1.2147,-0.0577 z m 0,7.40391 c 3.06568,0 5.55293,2.48725 5.55293,5.55293 0,3.06568 -2.48725,5.55294 -5.55293,5.55294 -3.06568,0 -5.55293,-2.48726 -5.55293,-5.55294 0,-3.06568 2.48725,-5.55293 5.55293,-5.55293 z m 0,0" fill="#222222" id="path33734" style="stroke-width:1.85098;fill:#ffffff" transform="matrix(0.9999999999999999, 0, 0, 0.9999999999999999, 0, -2.842170943040401e-14)"/>
</svg>