<?xml version="1.0" encoding="utf-8"?>
<svg xmlns="http://www.w3.org/2000/svg" width="24" height="24" fill="#FFF" enable-background="new 0 0 24 24" viewBox="0 0 24 24">
  <rect width="24" height="24" fill="none"/>
  <g>
    <path d="M 9 12.75 C 10.63 12.75 12.07 13.14 13.24 13.65 C 14.32 14.13 15 15.21 15 16.38 L 15 18 L 3 18 L 3 16.39 C 3 15.21 3.68 14.13 4.76 13.66 C 5.93 13.14 7.37 12.75 9 12.75 Z M 17 13 C 18.1 13 19 12.1 19 11 C 19 9.9 18.1 9 17 9 C 15.9 9 15 9.9 15 11 C 15 12.1 15.9 13 17 13 Z M 21 16.43 C 21 15.62 20.52 14.9 19.78 14.58 C 18.93 14.21 17.99 14 17 14 C 16.61 14 16.24 14.04 15.87 14.1 C 16.27 14.78 16.5 15.56 16.5 16.39 L 16.5 18 L 21 18 L 21 16.43 Z M 9 6 C 10.66 6 12 7.34 12 9 C 12 10.66 10.66 12 9 12 C 7.34 12 6 10.66 6 9 C 6 7.34 7.34 6 9 6 Z" style=""/>
  </g>
</svg>